<svg width="416" height="354" viewBox="0 0 416 354" fill="none" xmlns="http://www.w3.org/2000/svg">
<path fill-rule="evenodd" clip-rule="evenodd" d="M88.6886 138.346C96.0204 135.066 102.778 132.996 110.309 131.756L145.974 77.2324L112.474 54.7324L42.4744 77.2324L26.9744 114.232L88.6886 138.346ZM80.4744 124.232L49.9744 111.732L64.9744 107.232L80.4744 124.232ZM63.4744 82.2324L61.9744 97.7324L43.9744 101.732L49.9744 86.2324L63.4744 82.2324ZM96.4744 125.232L76.9744 103.732L98.4744 97.7324L96.4744 125.232ZM96.4744 86.2324L73.9744 93.7324V77.2324L86.4744 74.2324L96.4744 86.2324ZM108.474 82.2324L98.4744 71.2324L111.474 66.2324L125.974 77.2324L108.474 82.2324ZM125.974 89.2324L111.474 93.7324L109.474 114.232L125.974 89.2324Z" fill="#D9D9D9"/>
<path fill-rule="evenodd" clip-rule="evenodd" d="M77.9744 143.732C30.0298 170.1 10.7949 221.962 26.9744 274.232C41.7814 322.069 77.9286 351.508 127.974 353.232C174.251 354.827 211.52 331.079 230.112 290.952C232.566 285.657 234.694 280.077 236.474 274.232C237.156 271.995 237.75 269.745 238.26 267.486C247.065 228.444 230.515 186.707 201.366 159.637C195.023 153.746 188.083 148.55 180.678 144.227C164.814 134.967 146.815 129.715 127.974 130.232C121.377 130.414 115.649 130.876 110.309 131.756L102.474 143.732L88.6886 138.346C85.2857 139.868 81.7592 141.651 77.9744 143.732ZM127.974 330.232C90.8827 327.643 63.9421 308.691 49.9744 274.232C37.4086 243.232 45.0446 196.239 77.9744 170.232C94.3671 157.286 107.126 152.527 127.974 151.232C144.563 150.202 160.828 154.524 175.106 162.64C183.252 167.271 190.751 173.137 197.294 179.949C215.846 199.265 226.714 226.189 222.853 254.135C221.931 260.806 220.17 267.535 217.474 274.232C216.738 276.061 215.851 277.937 214.823 279.842C201.793 303.99 166.096 332.894 127.974 330.232Z" fill="#D9D9D9"/>
<path d="M110.309 131.756C102.778 132.996 96.0204 135.066 88.6886 138.346L102.474 143.732L110.309 131.756Z" fill="#D9D9D9"/>
<path d="M67.4744 50.7324C69.4744 49.9324 75.3077 48.3991 77.9744 47.7324L63.4744 1.23242L52.4744 4.23242L67.4744 50.7324Z" fill="#D9D9D9"/>
<path d="M42.9744 66.7324L1.47438 46.2324L7.97438 35.2324L48.4744 57.2324L42.9744 66.7324Z" fill="#D9D9D9"/>
<path d="M96.4744 42.7324L104.474 47.7324L127.974 6.23242L119.474 1.23242L96.4744 42.7324Z" fill="#D9D9D9"/>
<path d="M236.474 274.232C234.694 280.077 232.566 285.657 230.112 290.952C249.087 302.59 271.516 309.128 295.474 308.732C360.774 307.653 412.586 256.514 414.474 191.232C416.42 124.003 362.723 67.8437 295.474 66.7324C243.68 65.8765 198.604 98.5924 180.678 144.227C188.083 148.55 195.023 153.746 201.366 159.637C213.951 119.999 251.798 90.8275 295.474 91.7324C349.052 92.8426 391.64 137.669 389.974 191.232C388.361 243.123 347.379 283.657 295.474 284.732C274.216 285.173 254.436 278.753 238.26 267.486C237.75 269.745 237.156 271.995 236.474 274.232Z" fill="#D9D9D9"/>
<path d="M214.823 279.842C215.851 277.937 216.738 276.061 217.474 274.232C220.17 267.535 221.931 260.806 222.853 254.135C207.432 237.623 197.733 215.638 196.974 191.232C196.856 187.425 196.967 183.659 197.294 179.949C190.751 173.137 183.252 167.271 175.106 162.64C173.114 171.851 172.191 181.428 172.474 191.232C173.506 226.879 189.735 258.431 214.823 279.842Z" fill="#D9D9D9"/>
<path d="M88.6886 138.346C96.0204 135.066 102.778 132.996 110.309 131.756M88.6886 138.346L26.9744 114.232L42.4744 77.2324L112.474 54.7324L145.974 77.2324L110.309 131.756M88.6886 138.346L102.474 143.732L110.309 131.756M88.6886 138.346C85.2857 139.868 81.7592 141.651 77.9744 143.732C30.0298 170.1 10.7949 221.962 26.9744 274.232C41.7814 322.069 77.9286 351.508 127.974 353.232C174.251 354.827 211.52 331.079 230.112 290.952M110.309 131.756C115.649 130.876 121.377 130.414 127.974 130.232C146.815 129.715 164.814 134.967 180.678 144.227M230.112 290.952C232.566 285.657 234.694 280.077 236.474 274.232C237.156 271.995 237.75 269.745 238.26 267.486M230.112 290.952C249.087 302.59 271.516 309.128 295.474 308.732C360.774 307.653 412.586 256.514 414.474 191.232C416.42 124.003 362.723 67.8437 295.474 66.7324C243.68 65.8765 198.604 98.5924 180.678 144.227M230.112 290.952C224.723 287.646 219.612 283.929 214.823 279.842M180.678 144.227C188.083 148.55 195.023 153.746 201.366 159.637M180.678 144.227C178.346 150.162 176.474 156.314 175.106 162.64M201.366 159.637C213.951 119.999 251.798 90.8275 295.474 91.7324C349.052 92.8426 391.64 137.669 389.974 191.232C388.361 243.123 347.379 283.657 295.474 284.732C274.216 285.173 254.436 278.753 238.26 267.486M201.366 159.637C230.515 186.707 247.065 228.444 238.26 267.486M201.366 159.637C199.297 166.154 197.911 172.954 197.294 179.949M238.26 267.486C232.664 263.588 227.498 259.11 222.853 254.135M214.823 279.842C215.851 277.937 216.738 276.061 217.474 274.232C220.17 267.535 221.931 260.806 222.853 254.135M214.823 279.842C189.735 258.431 173.506 226.879 172.474 191.232C172.191 181.428 173.114 171.851 175.106 162.64M214.823 279.842C201.793 303.99 166.096 332.894 127.974 330.232C90.8827 327.643 63.9421 308.691 49.9744 274.232C37.4086 243.232 45.0446 196.239 77.9744 170.232C94.3671 157.286 107.126 152.527 127.974 151.232C144.563 150.202 160.828 154.524 175.106 162.64M222.853 254.135C207.432 237.623 197.733 215.638 196.974 191.232C196.856 187.425 196.967 183.659 197.294 179.949M222.853 254.135C226.714 226.189 215.846 199.265 197.294 179.949M197.294 179.949C190.751 173.137 183.252 167.271 175.106 162.64M49.9744 111.732L80.4744 124.232L64.9744 107.232L49.9744 111.732ZM61.9744 97.7324L63.4744 82.2324L49.9744 86.2324L43.9744 101.732L61.9744 97.7324ZM76.9744 103.732L96.4744 125.232L98.4744 97.7324L76.9744 103.732ZM73.9744 93.7324L96.4744 86.2324L86.4744 74.2324L73.9744 77.2324V93.7324ZM98.4744 71.2324L108.474 82.2324L125.974 77.2324L111.474 66.2324L98.4744 71.2324ZM111.474 93.7324L125.974 89.2324L109.474 114.232L111.474 93.7324ZM42.9744 66.7324L1.47438 46.2324L7.97438 35.2324L48.4744 57.2324L42.9744 66.7324ZM67.4744 50.7324C69.4744 49.9324 75.3077 48.3991 77.9744 47.7324L63.4744 1.23242L52.4744 4.23242L67.4744 50.7324ZM96.4744 42.7324L104.474 47.7324L127.974 6.23242L119.474 1.23242L96.4744 42.7324Z" stroke="white"/>
</svg>
